# xmcd
#
# Track frame offsets:
#	150
#	2396
#	4720
#	8016
#	9512
#	11019
#	11793
#	13273
#	14768
#	16274
#	17780
#	19306
#	20801
#	22302
#	23803
#	25282
#	26607
#	28129
#	29690
#	31175
#	33002
#	34677
#	36314
#	38103
#	39587
#	41110
#	42594
#	44155
#	45564
#	46820
#	48038
#	49446
#	50931
#	54129
#	55651
#	57136
#	58506
#	60029
#	61513
#	62846
#	64292
#	65739
#	67071
#	69850
#	71030
#	72248
#	73390
#	74456
#	75522
#	76664
#	77768
#	78910
#	79899
#	81041
#	82145
#	83478
#	84467
#	85762
#	86980
#	88122
#	89378
#	90710
#	91890
#	92880
#	93756
#	94593
#	95735
#	96877
#	98019
#	99123
#	100379
#	101711
#	103234
#	105588
#	107371
#	109823
#	112052
#	114727
#	116956
#	119408
#	120244
#	121860
#	124089
#	126318
#	128548
#	130554
#	133229
#	135681
#	137687
#	140139
#	141922
#	144374
#	146603
#	148833
#	150839
#	152845
#	154851
#	157526
#	158941
#
# Disc length: 2151 seconds
#
# Revision: 0
# Processed by: cddbd v1.5.1PL2 Copyright (c) Steve Scherf et al.
# Submitted via: EasyCDDAExtractor 8.2.1.1
#
DISCID=42086563
DTITLE=neko case - fox confessor brings the flood
DYEAR=2006
DGENRE=country
TTITLE0=margaret vs. pauline
TTITLE1=margaret vs. pauline
TTITLE2=margaret vs. pauline
TTITLE3=margaret vs. pauline
TTITLE4=margaret vs. pauline
TTITLE5=margaret vs. pauline
TTITLE6=margaret vs. pauline
TTITLE7=star witness
TTITLE8=star witness
TTITLE9=star witness
TTITLE10=star witness
TTITLE11=star witness
TTITLE12=star witness
TTITLE13=star witness
TTITLE14=star witness
TTITLE15=star witness
TTITLE16=star witness
TTITLE17=star witness
TTITLE18=star witness
TTITLE19=star witness
TTITLE20=star witness
TTITLE21=star witness
TTITLE22=hold on, hold on
TTITLE23=hold on, hold on
TTITLE24=hold on, hold on
TTITLE25=hold on, hold on
TTITLE26=hold on, hold on
TTITLE27=hold on, hold on
TTITLE28=hold on, hold on
TTITLE29=hold on, hold on
TTITLE30=hold on, hold on
TTITLE31=a widow's toast
TTITLE32=a widow's toast
TTITLE33=a widow's toast
TTITLE34=that easy feeling
TTITLE35=that easy feeling
TTITLE36=that easy feeling
TTITLE37=that easy feeling
TTITLE38=that easy feeling
TTITLE39=that easy feeling
TTITLE40=that easy feeling
TTITLE41=that easy feeling
TTITLE42=fox confessor brings the flood
TTITLE43=fox confessor brings the flood
TTITLE44=fox confessor brings the flood
TTITLE45=fox confessor brings the flood
TTITLE46=fox confessor brings the flood
TTITLE47=fox confessor brings the flood
TTITLE48=fox confessor brings the flood
TTITLE49=fox confessor brings the flood
TTITLE50=fox confessor brings the flood
TTITLE51=fox confessor brings the flood
TTITLE52=fox confessor brings the flood
TTITLE53=john saw that number
TTITLE54=john saw that number
TTITLE55=john saw that number
TTITLE56=john saw that number
TTITLE57=john saw that number
TTITLE58=john saw that number
TTITLE59=john saw that number
TTITLE60=john saw that number
TTITLE61=john saw that number
TTITLE62=john saw that number
TTITLE63=john saw that number
TTITLE64=john saw that number
TTITLE65=john saw that number
TTITLE66=john saw that number
TTITLE67=john saw that number
TTITLE68=john saw that number
TTITLE69=dirty knife
TTITLE70=dirty knife
TTITLE71=dirty knife
TTITLE72=dirty knife
TTITLE73=dirty knife
TTITLE74=dirty knife
TTITLE75=dirty knife
TTITLE76=lion's jaws
TTITLE77=lion's jaws
TTITLE78=lion's jaws
TTITLE79=lion's jaws
TTITLE80=lion's jaws
TTITLE81=lion's jaws
TTITLE82=maybe sparrow
TTITLE83=maybe sparrow
TTITLE84=maybe sparrow
TTITLE85=maybe sparrow
TTITLE86=maybe sparrow
TTITLE87=at last
TTITLE88=at last
TTITLE89=at last
TTITLE90=at last
TTITLE91=the needle has landed
TTITLE92=the needle has landed
TTITLE93=the needle has landed
TTITLE94=the needle has landed
TTITLE95=the needle has landed
TTITLE96=the needle has landed
TTITLE97=the needle has landed
TTITLE98=the needle has landed
EXTD=
EXTT0=
EXTT1=
EXTT2=
EXTT3=
EXTT4=
EXTT5=
EXTT6=
EXTT7=
EXTT8=
EXTT9=
EXTT10=
EXTT11=
EXTT12=
EXTT13=
EXTT14=
EXTT15=
EXTT16=
EXTT17=
EXTT18=
EXTT19=
EXTT20=
EXTT21=
EXTT22=
EXTT23=
EXTT24=
EXTT25=
EXTT26=
EXTT27=
EXTT28=
EXTT29=
EXTT30=
EXTT31=
EXTT32=
EXTT33=
EXTT34=
EXTT35=
EXTT36=
EXTT37=
EXTT38=
EXTT39=
EXTT40=
EXTT41=
EXTT42=
EXTT43=
EXTT44=
EXTT45=
EXTT46=
EXTT47=
EXTT48=
EXTT49=
EXTT50=
EXTT51=
EXTT52=
EXTT53=
EXTT54=
EXTT55=
EXTT56=
EXTT57=
EXTT58=
EXTT59=
EXTT60=
EXTT61=
EXTT62=
EXTT63=
EXTT64=
EXTT65=
EXTT66=
EXTT67=
EXTT68=
EXTT69=
EXTT70=
EXTT71=
EXTT72=
EXTT73=
EXTT74=
EXTT75=
EXTT76=
EXTT77=
EXTT78=
EXTT79=
EXTT80=
EXTT81=
EXTT82=
EXTT83=
EXTT84=
EXTT85=
EXTT86=
EXTT87=
EXTT88=
EXTT89=
EXTT90=
EXTT91=
EXTT92=
EXTT93=
EXTT94=
EXTT95=
EXTT96=
EXTT97=
EXTT98=
PLAYORDER=
